<svg xmlns="http://www.w3.org/2000/svg" width="360" height="204" viewBox="0 0 360 204">
<rect width="360" height="204" rx="8" ry="8" fill="#0d1117"/>
<text x="14" y="28" font-family="-apple-system,Segoe UI,Helvetica,Arial" font-size="14" font-weight="600" fill="#c9d1d9">JSON</text>
<text x="14" y="43" font-family="-apple-system,Segoe UI,Helvetica,Arial" font-size="11" fill="#8b949e">177,314 lines</text>
<rect x="194" y="27" rx="4" ry="4" width="150" height="8" fill="#21262d"/>
<rect x="194" y="27" rx="4" ry="4" width="38" height="8" fill="#3fb950"/>
<text x="344" y="35" font-family="-apple-system,Segoe UI,Helvetica,Arial" font-size="12" font-weight="600" fill="#3fb950" text-anchor="end">25.4%</text>
<text x="14" y="64" font-family="-apple-system,Segoe UI,Helvetica,Arial" font-size="14" font-weight="600" fill="#c9d1d9">JavaScript</text>
<text x="14" y="79" font-family="-apple-system,Segoe UI,Helvetica,Arial" font-size="11" fill="#8b949e">114,012 lines</text>
<rect x="194" y="63" rx="4" ry="4" width="150" height="8" fill="#21262d"/>
<rect x="194" y="63" rx="4" ry="4" width="24" height="8" fill="#f1e05a"/>
<text x="344" y="71" font-family="-apple-system,Segoe UI,Helvetica,Arial" font-size="12" font-weight="600" fill="#f1e05a" text-anchor="end">16.3%</text>
<text x="14" y="100" font-family="-apple-system,Segoe UI,Helvetica,Arial" font-size="14" font-weight="600" fill="#c9d1d9">HTML</text>
<text x="14" y="115" font-family="-apple-system,Segoe UI,Helvetica,Arial" font-size="11" fill="#8b949e">79,809 lines</text>
<rect x="194" y="99" rx="4" ry="4" width="150" height="8" fill="#21262d"/>
<rect x="194" y="99" rx="4" ry="4" width="17" height="8" fill="#e34c26"/>
<text x="344" y="107" font-family="-apple-system,Segoe UI,Helvetica,Arial" font-size="12" font-weight="600" fill="#e34c26" text-anchor="end">11.4%</text>
<text x="14" y="136" font-family="-apple-system,Segoe UI,Helvetica,Arial" font-size="14" font-weight="600" fill="#c9d1d9">CSS</text>
<text x="14" y="151" font-family="-apple-system,Segoe UI,Helvetica,Arial" font-size="11" fill="#8b949e">78,651 lines</text>
<rect x="194" y="135" rx="4" ry="4" width="150" height="8" fill="#21262d"/>
<rect x="194" y="135" rx="4" ry="4" width="17" height="8" fill="#563d7c"/>
<text x="344" y="143" font-family="-apple-system,Segoe UI,Helvetica,Arial" font-size="12" font-weight="600" fill="#563d7c" text-anchor="end">11.2%</text>
<text x="14" y="172" font-family="-apple-system,Segoe UI,Helvetica,Arial" font-size="14" font-weight="600" fill="#c9d1d9">PHP</text>
<text x="14" y="187" font-family="-apple-system,Segoe UI,Helvetica,Arial" font-size="11" fill="#8b949e">64,600 lines</text>
<rect x="194" y="171" rx="4" ry="4" width="150" height="8" fill="#21262d"/>
<rect x="194" y="171" rx="4" ry="4" width="14" height="8" fill="#4F5D95"/>
<text x="344" y="179" font-family="-apple-system,Segoe UI,Helvetica,Arial" font-size="12" font-weight="600" fill="#4F5D95" text-anchor="end">9.2%</text>
</svg>